<svg width="60" height="60" viewBox="0 0 60 60" fill="none" xmlns="http://www.w3.org/2000/svg">
<g id="box">
<path id="Vector" d="M52.5 40.0007V20.0007C52.4991 19.1239 52.2676 18.2628 51.8288 17.5036C51.39 16.7445 50.7593 16.1141 50 15.6757L32.5 5.67573C31.7399 5.23689 30.8777 5.00586 30 5.00586C29.1223 5.00586 28.2601 5.23689 27.5 5.67573L10 15.6757C9.24066 16.1141 8.60995 16.7445 8.17115 17.5036C7.73236 18.2628 7.5009 19.1239 7.5 20.0007V40.0007C7.5009 40.8775 7.73236 41.7387 8.17115 42.4978C8.60995 43.2569 9.24066 43.8873 10 44.3257L27.5 54.3257C28.2601 54.7646 29.1223 54.9956 30 54.9956C30.8777 54.9956 31.7399 54.7646 32.5 54.3257L50 44.3257C50.7593 43.8873 51.39 43.2569 51.8288 42.4978C52.2676 41.7387 52.4991 40.8775 52.5 40.0007Z" fill="#ECF5F5" stroke="#232521" stroke-width="2" stroke-linecap="round" stroke-linejoin="round"/>
<path id="Vector_2" d="M8.1748 17.4004L29.9998 30.0254L51.8248 17.4004" stroke="#232521" stroke-width="2" stroke-linecap="round" stroke-linejoin="round"/>
<path id="Vector_3" d="M30 55.2V30" stroke="#232521" stroke-width="2" stroke-linecap="round" stroke-linejoin="round"/>
</g>
</svg>
