<svg width="60" height="60" viewBox="0 0 60 60" fill="none" xmlns="http://www.w3.org/2000/svg">
<g id="calendar">
<path id="Vector" d="M47.5 10H12.5C9.73858 10 7.5 12.2386 7.5 15V50C7.5 52.7614 9.73858 55 12.5 55H47.5C50.2614 55 52.5 52.7614 52.5 50V15C52.5 12.2386 50.2614 10 47.5 10Z" fill="#ECF5F5" stroke="#232521" stroke-width="2" stroke-linecap="round" stroke-linejoin="round"/>
<g id="40">
<path d="M25.364 44.834V41.783H20V39.578L24.851 32.234H27.56V39.587H28.622V41.783H27.56V44.834H25.364ZM22.547 39.578L25.364 39.587L25.355 35.231L22.547 39.578Z" fill="#232521"/>
<path d="M34.6039 45.068C33.8719 45.068 33.2059 44.9 32.6059 44.564C32.0059 44.222 31.4869 43.751 31.0489 43.151C30.6169 42.551 30.2839 41.858 30.0499 41.072C29.8159 40.28 29.6989 39.434 29.6989 38.534C29.6989 37.634 29.8159 36.791 30.0499 36.005C30.2839 35.213 30.6169 34.517 31.0489 33.917C31.4869 33.317 32.0059 32.849 32.6059 32.513C33.2059 32.171 33.8719 32 34.6039 32C35.3359 32 36.0019 32.171 36.6019 32.513C37.2019 32.849 37.7149 33.317 38.1409 33.917C38.5729 34.517 38.9059 35.213 39.1399 36.005C39.3799 36.791 39.4999 37.634 39.4999 38.534C39.4999 39.434 39.3799 40.28 39.1399 41.072C38.9059 41.858 38.5729 42.551 38.1409 43.151C37.7149 43.751 37.2019 44.222 36.6019 44.564C36.0019 44.9 35.3359 45.068 34.6039 45.068ZM34.6039 42.872C35.2459 42.872 35.7769 42.668 36.1969 42.26C36.6169 41.852 36.9289 41.318 37.1329 40.658C37.3369 39.998 37.4389 39.29 37.4389 38.534C37.4389 37.736 37.3309 37.01 37.1149 36.356C36.8989 35.696 36.5809 35.171 36.1609 34.781C35.7409 34.391 35.2219 34.196 34.6039 34.196C34.1179 34.196 33.6949 34.316 33.3349 34.556C32.9809 34.79 32.6869 35.111 32.4529 35.519C32.2189 35.927 32.0449 36.392 31.9309 36.914C31.8169 37.43 31.7599 37.97 31.7599 38.534C31.7599 39.284 31.8619 39.992 32.0659 40.658C32.2759 41.318 32.5909 41.852 33.0109 42.26C33.4369 42.668 33.9679 42.872 34.6039 42.872Z" fill="#232521"/>
</g>
<path id="Vector_2" d="M40 5V15" stroke="#232521" stroke-width="2" stroke-linecap="round" stroke-linejoin="round"/>
<path id="Vector_3" d="M20 5V15" stroke="#232521" stroke-width="2" stroke-linecap="round" stroke-linejoin="round"/>
<path id="Vector_4" d="M7.5 25H52.5" stroke="#232521" stroke-width="2" stroke-linecap="round" stroke-linejoin="round"/>
</g>
</svg>
