<svg width="60" height="60" viewBox="0 0 60 60" fill="none" xmlns="http://www.w3.org/2000/svg">
<g id="circle">
<path id="Vector" d="M30 52C42.1503 52 52 42.1503 52 30C52 17.8497 42.1503 8 30 8C17.8497 8 8 17.8497 8 30C8 42.1503 17.8497 52 30 52Z" fill="#ECF5F5" stroke="#232521" stroke-width="2" stroke-linecap="round" stroke-linejoin="round"/>
<g id="Group 42">
<path id="Vector_2" d="M30 4V12" stroke="#232521" stroke-width="2" stroke-linecap="round" stroke-linejoin="round"/>
<path id="Vector_3" d="M30 48V56" stroke="#232521" stroke-width="2" stroke-linecap="round" stroke-linejoin="round"/>
</g>
<g id="Group 43">
<path id="Vector_4" d="M4 30H12" stroke="#232521" stroke-width="2" stroke-linecap="round" stroke-linejoin="round"/>
<path id="Vector_5" d="M48 30H56" stroke="#232521" stroke-width="2" stroke-linecap="round" stroke-linejoin="round"/>
</g>
<path id="Vector_6" d="M30 36C33.3137 36 36 33.3137 36 30C36 26.6863 33.3137 24 30 24C26.6863 24 24 26.6863 24 30C24 33.3137 26.6863 36 30 36Z" fill="#ECF5F5" stroke="#232521" stroke-width="2" stroke-linecap="round" stroke-linejoin="round"/>
</g>
</svg>
