<svg width="108" height="16" viewBox="0 0 108 16" fill="none" xmlns="http://www.w3.org/2000/svg">
<g id="Group">
<path id="Vector" fill-rule="evenodd" clip-rule="evenodd" d="M17.5559 0.0419922L14.8834 4.15747H5.41833C4.91045 4.15747 4.65787 4.37451 4.65787 4.81138C4.65787 5.24825 4.91045 5.4653 5.41833 5.4653H12.23C13.8514 5.4653 15.2066 5.93834 16.293 6.88165C17.4201 7.88617 17.9823 9.18286 17.9823 10.7773C17.9823 12.3717 17.412 13.6323 16.2767 14.6062C15.2121 15.5356 13.865 16.0003 12.2354 16.0003H0L2.66979 11.8848H12.2327C12.6645 11.8848 13.0529 11.7957 13.3978 11.6204C13.8432 11.3978 14.0659 11.0973 14.0659 10.7133C14.0659 10.3293 13.8432 10.0121 13.3978 9.80617C13.0637 9.65869 12.6754 9.58356 12.23 9.58356H5.41833C3.90826 9.58356 2.64806 9.17173 1.63229 8.3453C0.543191 7.46043 0 6.28617 0 4.8253C0 3.36443 0.543191 2.17069 1.63229 1.28304C2.64806 0.456601 3.90826 0.0447749 5.41833 0.0447749H17.5559V0.0419922Z" fill="#232521"/>
<path id="Vector_2" fill-rule="evenodd" clip-rule="evenodd" d="M31.9396 0.0419922V4.15747H25.242V16.0003H21.0839V4.15747H15.5732L18.243 0.0419922H31.9396Z" fill="#232521"/>
<path id="Vector_3" fill-rule="evenodd" clip-rule="evenodd" d="M47.0782 11.882L44.4057 16.0003H32.5479V0.0419922H47.0782L44.4057 4.15747H36.706V5.86321H46.4291L43.7566 9.97869H36.706V11.882H47.0782Z" fill="#232521"/>
<path id="Vector_4" fill-rule="evenodd" clip-rule="evenodd" d="M51.6708 16L54.1749 11.8845H59.7616L56.2906 6.13009L50.2585 16H45.1172L53.6915 1.81426C53.9631 1.34122 54.3406 0.929391 54.824 0.576C55.3563 0.192 55.8697 0 56.364 0C56.8583 0 57.3852 0.192 57.9039 0.576C58.3629 0.915478 58.7323 1.3273 59.0175 1.81426L67.388 16H51.6708Z" fill="#232521"/>
<path id="Vector_5" fill-rule="evenodd" clip-rule="evenodd" d="M81.2833 11.882V16.0003H67.9072V0.0419922H72.0654V11.882H81.2833Z" fill="#232521"/>
<path id="Vector_6" fill-rule="evenodd" clip-rule="evenodd" d="M91.1124 0.0419922V4.15747H86.077V16.0003H81.9189V4.15747H75.5771V0.0419922H91.1124Z" fill="#232521"/>
<path id="Vector_7" fill-rule="evenodd" clip-rule="evenodd" d="M108 16.0003H103.845V10.0232H95.9005V16.0003H91.7451V0.0419922H95.9005V5.90773H103.845V0.0419922H108V16.0003Z" fill="#232521"/>
</g>
</svg>
