<svg width="100" height="101" viewBox="0 0 100 101" fill="none" xmlns="http://www.w3.org/2000/svg">
<g id="Group 7">
<g id="120&#194;&#176;">
<path d="M37.8828 44.8027V58.0661H35.044V47.4645H34.9654L31.8906 49.3685V46.8816L35.2145 44.8027H37.8828Z" fill="white"/>
<path d="M41.0739 58.0661V56.0455L45.8531 51.674C46.2596 51.2855 46.6005 50.9357 46.8759 50.6249C47.1556 50.314 47.3676 50.0096 47.5118 49.7117C47.656 49.4095 47.7281 49.0835 47.7281 48.7338C47.7281 48.3452 47.6385 48.0106 47.4593 47.73C47.2802 47.445 47.0354 47.227 46.7251 47.0759C46.4148 46.9205 46.0629 46.8427 45.6696 46.8427C45.2587 46.8427 44.9003 46.9248 44.5944 47.0888C44.2885 47.2529 44.0524 47.4882 43.8864 47.7948C43.7203 48.1013 43.6372 48.4661 43.6372 48.8892H40.9427C40.9427 48.0214 41.1416 47.268 41.5393 46.629C41.9371 45.99 42.4943 45.4957 43.2111 45.146C43.9279 44.7963 44.7539 44.6214 45.6892 44.6214C46.6508 44.6214 47.4878 44.7898 48.2002 45.1265C48.917 45.459 49.4742 45.921 49.8719 46.5125C50.2697 47.104 50.4685 47.7818 50.4685 48.546C50.4685 49.0468 50.368 49.5412 50.167 50.0291C49.9703 50.5169 49.6184 51.0588 49.1114 51.6546C48.6045 52.2461 47.8899 52.9563 46.9677 53.7853L45.0074 55.6828V55.7735H50.6455V58.0661H41.0739Z" fill="white"/>
<path d="M57.9669 58.3575C56.8393 58.3532 55.869 58.079 55.056 57.535C54.2475 56.991 53.6247 56.2031 53.1876 55.1712C52.7549 54.1393 52.5407 52.898 52.5451 51.4474C52.5451 50.001 52.7615 48.7684 53.1942 47.7494C53.6312 46.7305 54.254 45.9555 55.0626 45.4244C55.8755 44.8891 56.8436 44.6214 57.9669 44.6214C59.0901 44.6214 60.056 44.8891 60.8646 45.4244C61.6775 45.9598 62.3025 46.737 62.7396 47.7559C63.1767 48.7705 63.393 50.001 63.3886 51.4474C63.3886 52.9024 63.1701 54.1458 62.7331 55.1777C62.3004 56.2096 61.6797 56.9975 60.8712 57.5415C60.0626 58.0855 59.0945 58.3575 57.9669 58.3575ZM57.9669 56.0325C58.7361 56.0325 59.3502 55.6504 59.8091 54.8862C60.268 54.1221 60.4953 52.9758 60.4909 51.4474C60.4909 50.4414 60.386 49.6038 60.1762 48.9346C59.9708 48.2654 59.678 47.7624 59.2977 47.4256C58.9219 47.0888 58.4782 46.9205 57.9669 46.9205C57.202 46.9205 56.5901 47.2982 56.1312 48.0538C55.6723 48.8094 55.4407 49.9406 55.4363 51.4474C55.4363 52.4663 55.539 53.3168 55.7444 53.999C55.9542 54.6769 56.2492 55.1863 56.6295 55.5274C57.0097 55.8642 57.4555 56.0325 57.9669 56.0325Z" fill="white"/>
<path d="M66.8813 47.8759C66.5168 47.8759 66.1851 47.7891 65.8861 47.6156C65.5872 47.4394 65.3485 47.2037 65.1702 46.9084C64.9945 46.6131 64.9067 46.2867 64.9067 45.9292C64.9067 45.5691 64.9945 45.2414 65.1702 44.9461C65.3485 44.6508 65.5872 44.4163 65.8861 44.2427C66.1851 44.0666 66.5168 43.9785 66.8813 43.9785C67.2458 43.9785 67.5763 44.0666 67.8726 44.2427C68.1715 44.4163 68.4089 44.6508 68.5846 44.9461C68.7629 45.2414 68.852 45.5691 68.852 45.9292C68.852 46.2867 68.7629 46.6131 68.5846 46.9084C68.4089 47.2037 68.1715 47.4394 67.8726 47.6156C67.5763 47.7891 67.2458 47.8759 66.8813 47.8759ZM66.8813 46.6636C67.0177 46.6636 67.1423 46.6312 67.255 46.5664C67.3678 46.4991 67.4569 46.4097 67.5225 46.2983C67.5907 46.1869 67.6248 46.0639 67.6248 45.9292C67.6248 45.7919 67.5907 45.6675 67.5225 45.5561C67.4569 45.4447 67.3678 45.3567 67.255 45.2919C67.1423 45.2245 67.0177 45.1909 66.8813 45.1909C66.7423 45.1909 66.6165 45.2245 66.5037 45.2919C66.3909 45.3567 66.3005 45.4447 66.2323 45.5561C66.1667 45.6675 66.1339 45.7906 66.1339 45.9253C66.1339 46.0626 66.1667 46.1882 66.2323 46.3022C66.3005 46.4136 66.3909 46.5017 66.5037 46.5664C66.6191 46.6312 66.745 46.6636 66.8813 46.6636Z" fill="white"/>
</g>
<path id="Subtract" fill-rule="evenodd" clip-rule="evenodd" d="M50 2.21484C22.3858 2.21486 0 24.3285 0 51.6071C0 78.8856 22.3858 100.999 50 100.999C77.6142 100.999 100 78.8856 100 51.6071H98C98 77.7581 76.5328 98.9993 50 98.9993C23.4672 98.9993 2 77.7581 2 51.6071C2 25.4561 23.4672 4.21486 50 4.21486V2.21484Z" fill="white"/>
<path id="Subtract_2" fill-rule="evenodd" clip-rule="evenodd" d="M86.5281 18.0494L86.3975 17.7417C86.4696 17.8173 86.5415 17.8932 86.6132 17.9693L86.5281 18.0494ZM89.1006 24.1112L88.1076 21.7713L88.3964 21.5391L89.1757 20.9125C89.9906 21.9261 90.766 22.972 91.4997 24.0479L90.6735 24.6113L89.8473 25.1747C89.6032 24.8167 89.3543 24.4621 89.1006 24.1112ZM97.2814 43.3877C97.2173 43.0256 97.149 42.6649 97.0766 42.3057L98.0569 42.1082L99.0372 41.9107C99.2926 43.1779 99.4988 44.4626 99.654 45.7628L98.661 45.8813L98.3551 45.9178L97.2814 43.3877ZM99.9641 49.7091L99.9407 49.6541L99.9619 49.6532C99.9627 49.6719 99.9634 49.6905 99.9641 49.7091ZM97.1517 38.3938L98.113 38.1181C97.7529 36.8624 97.3438 35.627 96.8879 34.4141L95.9518 34.766L95.0158 35.1179C95.453 36.2809 95.8452 37.4654 96.1904 38.6694L97.1517 38.3938ZM94.4643 31.2442L95.3692 30.8186C94.8142 29.6385 94.2133 28.4836 93.5689 27.3563L92.7007 27.8526L91.8325 28.3488C92.4507 29.4303 93.0271 30.538 93.5594 31.6699L94.4643 31.2442Z" fill="white"/>
<path id="Vector 1" d="M48.2695 1L50.5772 3.27964L48.2695 5.55928" stroke="white" stroke-width="2"/>
<path id="Ellipse 4" d="M74.3846 13.9933C74.3846 17.6263 71.3999 20.5921 67.6923 20.5921C63.9847 20.5921 61 17.6263 61 13.9933C61 10.3604 63.9847 7.39453 67.6923 7.39453C71.3999 7.39453 74.3846 10.3604 74.3846 13.9933Z" fill="url(#paint0_linear_4_38)" stroke="white" stroke-width="2"/>
</g>
<defs>
<linearGradient id="paint0_linear_4_38" x1="60" y1="6.39453" x2="75.1965" y2="21.778" gradientUnits="userSpaceOnUse">
<stop stop-color="#5B5B5E"/>
<stop offset="1" stop-color="#262628"/>
</linearGradient>
</defs>
</svg>
