<svg width="100" height="100" viewBox="0 0 100 100" fill="none" xmlns="http://www.w3.org/2000/svg">
<g id="Group 13">
<g id="87%">
<path d="M37.0563 56.7221C36.0544 56.7221 35.1631 56.5582 34.3824 56.2304C33.606 55.8982 32.9966 55.4459 32.5542 54.8733C32.1118 54.3008 31.8906 53.6517 31.8906 52.9262C31.8906 52.3668 32.0164 51.8532 32.268 51.3856C32.5239 50.9135 32.8708 50.5224 33.3089 50.212C33.747 49.8974 34.2371 49.6963 34.7792 49.6089V49.5171C34.0679 49.3729 33.4911 49.0254 33.0487 48.4747C32.6063 47.9196 32.3851 47.275 32.3851 46.5407C32.3851 45.8458 32.5868 45.2273 32.9901 44.6854C33.3935 44.1391 33.9465 43.7107 34.6491 43.4004C35.3561 43.0857 36.1585 42.9284 37.0563 42.9284C37.9541 42.9284 38.7543 43.0857 39.457 43.4004C40.164 43.7151 40.7191 44.1456 41.1225 44.6919C41.5259 45.2339 41.7297 45.8502 41.734 46.5407C41.7297 47.2794 41.5042 47.924 41.0574 48.4747C40.6107 49.0254 40.0382 49.3729 39.3399 49.5171V49.6089C39.8734 49.6963 40.357 49.8974 40.7907 50.212C41.2288 50.5224 41.5757 50.9135 41.8316 51.3856C42.0919 51.8532 42.2242 52.3668 42.2285 52.9262C42.2242 53.6517 42.0008 54.3008 41.5584 54.8733C41.116 55.4459 40.5044 55.8982 39.7237 56.2304C38.9474 56.5582 38.0582 56.7221 37.0563 56.7221ZM37.0563 54.6373C37.503 54.6373 37.8934 54.5564 38.2274 54.3947C38.5613 54.2287 38.8216 54.0014 39.0081 53.7129C39.1989 53.4201 39.2943 53.0835 39.2943 52.7033C39.2943 52.3143 39.1967 51.9712 39.0016 51.674C38.8064 51.3724 38.5418 51.1364 38.2079 50.966C37.8739 50.7912 37.49 50.7037 37.0563 50.7037C36.6269 50.7037 36.2431 50.7912 35.9048 50.966C35.5665 51.1364 35.2997 51.3724 35.1045 51.674C34.9137 51.9712 34.8183 52.3143 34.8183 52.7033C34.8183 53.0835 34.9115 53.4201 35.098 53.7129C35.2845 54.0014 35.5469 54.2287 35.8852 54.3947C36.2236 54.5564 36.6139 54.6373 37.0563 54.6373ZM37.0563 48.6386C37.4293 48.6386 37.7611 48.5621 38.0517 48.4092C38.3423 48.2562 38.57 48.0442 38.7348 47.7732C38.8996 47.5023 38.9821 47.1898 38.9821 46.8357C38.9821 46.4861 38.8996 46.1801 38.7348 45.9179C38.57 45.6513 38.3445 45.4437 38.0582 45.2951C37.772 45.1421 37.438 45.0656 37.0563 45.0656C36.679 45.0656 36.345 45.1421 36.0544 45.2951C35.7638 45.4437 35.5361 45.6513 35.3713 45.9179C35.2108 46.1801 35.1306 46.4861 35.1306 46.8357C35.1306 47.1898 35.213 47.5023 35.3778 47.7732C35.5426 48.0442 35.7703 48.2562 36.0609 48.4092C36.3515 48.5621 36.6833 48.6386 37.0563 48.6386Z" fill="white"/>
<path d="M44.7251 56.5385L50.2486 45.5245V45.4328H43.8143V43.112H53.1633V45.4655L47.6333 56.5385H44.7251Z" fill="white"/>
<path d="M62.387 54.021V53.313C62.387 52.7754 62.4998 52.2815 62.7253 51.8314C62.9552 51.3768 63.287 51.0141 63.7207 50.7431C64.1588 50.4677 64.6923 50.3301 65.3212 50.3301C65.9588 50.3301 66.4944 50.4655 66.9281 50.7365C67.3662 51.0075 67.6958 51.3703 67.917 51.8248C68.1426 52.275 68.2553 52.771 68.2553 53.313V54.021C68.2553 54.5586 68.1426 55.0547 67.917 55.5092C67.6915 55.9594 67.3597 56.32 66.9216 56.591C66.4836 56.8663 65.9501 57.004 65.3212 57.004C64.6836 57.004 64.148 56.8663 63.7142 56.591C63.2805 56.32 62.9509 55.9594 62.7253 55.5092C62.4998 55.0547 62.387 54.5586 62.387 54.021ZM64.2802 53.313V54.021C64.2802 54.3314 64.354 54.6242 64.5014 54.8995C64.6532 55.1749 64.9265 55.3126 65.3212 55.3126C65.7159 55.3126 65.9848 55.1771 66.1279 54.9061C66.2754 54.6351 66.3491 54.3401 66.3491 54.021V53.313C66.3491 52.9939 66.2797 52.6967 66.1409 52.4214C66.0021 52.146 65.7289 52.0084 65.3212 52.0084C64.9308 52.0084 64.6598 52.146 64.5079 52.4214C64.3561 52.6967 64.2802 52.9939 64.2802 53.313ZM55.5493 46.3375V45.6294C55.5493 45.0875 55.6643 44.5914 55.8941 44.1412C56.124 43.6867 56.4558 43.3239 56.8895 43.053C57.3276 42.782 57.8568 42.6465 58.477 42.6465C59.1189 42.6465 59.6567 42.782 60.0904 43.053C60.5242 43.3239 60.8538 43.6867 61.0793 44.1412C61.3049 44.5914 61.4176 45.0875 61.4176 45.6294V46.3375C61.4176 46.8794 61.3027 47.3755 61.0728 47.8257C60.8473 48.2759 60.5155 48.6364 60.0774 48.9074C59.6437 49.174 59.1102 49.3073 58.477 49.3073C57.8437 49.3073 57.3081 49.1718 56.87 48.9009C56.4363 48.6255 56.1067 48.2649 55.8811 47.8191C55.6599 47.3689 55.5493 46.8751 55.5493 46.3375ZM57.4556 45.6294V46.3375C57.4556 46.6565 57.5293 46.9516 57.6768 47.2225C57.8286 47.4935 58.0953 47.629 58.477 47.629C58.876 47.629 59.1471 47.4935 59.2902 47.2225C59.4377 46.9516 59.5114 46.6565 59.5114 46.3375V45.6294C59.5114 45.3104 59.442 45.0132 59.3032 44.7378C59.1644 44.4625 58.889 44.3248 58.477 44.3248C58.091 44.3248 57.8242 44.4647 57.6768 44.7444C57.5293 45.0241 57.4556 45.3191 57.4556 45.6294ZM56.4081 56.5385L65.5684 43.112H67.273L58.1126 56.5385H56.4081Z" fill="white"/>
</g>
<g id="Group 8">
<rect id="Rectangle 6" x="48.8545" width="1.52672" height="15.3846" fill="white"/>
<rect id="Rectangle 7" x="48.8545" y="84.6152" width="1.52672" height="15.3846" fill="white"/>
</g>
<g id="Group 11">
<rect id="Rectangle 6_2" y="50.7695" width="1.53846" height="15.2672" transform="rotate(-90 0 50.7695)" fill="white"/>
<rect id="Rectangle 7_2" x="83.9697" y="50.7695" width="1.53846" height="15.2672" transform="rotate(-90 83.9697 50.7695)" fill="white"/>
</g>
<g id="Group 9">
<rect id="Rectangle 6_3" width="1.5326" height="15.326" transform="matrix(0.704392 -0.709811 0.704392 0.709811 13.9932 15.1895)" fill="white"/>
<rect id="Rectangle 7_3" width="1.5326" height="15.326" transform="matrix(0.704392 -0.709811 0.704392 0.709811 73.3682 75.0215)" fill="white"/>
</g>
<g id="Group 10">
<rect id="Rectangle 6_4" width="1.5326" height="15.326" transform="matrix(-0.704392 -0.709811 -0.704392 0.709811 85.2441 15.1895)" fill="white"/>
<rect id="Rectangle 7_4" width="1.5326" height="15.326" transform="matrix(-0.704392 -0.709811 -0.704392 0.709811 25.8691 75.0215)" fill="white"/>
</g>
</g>
</svg>
