<svg width="10" height="10" viewBox="0 0 10 10" fill="none" xmlns="http://www.w3.org/2000/svg">
<path id="Subtract" fill-rule="evenodd" clip-rule="evenodd" d="M5 10C7.76142 10 10 7.76142 10 5C10 2.23858 7.76142 0 5 0C2.23858 0 0 2.23858 0 5C0 7.76142 2.23858 10 5 10ZM5.36719 2H3V8H4.26855V5.87305H5.19455L6.33105 8H7.73145L6.45842 5.66904C6.47672 5.66111 6.49481 5.65293 6.5127 5.64453C6.83887 5.49219 7.08789 5.27344 7.25977 4.98828C7.43164 4.70117 7.51758 4.3584 7.51758 3.95996C7.51758 3.56348 7.43262 3.21875 7.2627 2.92578C7.09473 2.63086 6.84961 2.40332 6.52734 2.24316C6.20703 2.08105 5.82031 2 5.36719 2ZM4.26855 4.85352H5.12988C5.37207 4.85352 5.57324 4.82031 5.7334 4.75391C5.89355 4.6875 6.0127 4.58789 6.09082 4.45508C6.1709 4.32227 6.21094 4.15723 6.21094 3.95996C6.21094 3.76074 6.1709 3.59277 6.09082 3.45605C6.0127 3.31934 5.89258 3.21582 5.73047 3.14551C5.57031 3.07324 5.36816 3.03711 5.12402 3.03711H4.26855V4.85352Z" fill="#232521"/>
</svg>
